<?xml version="1.0" ?><svg data-name="Layer 1" id="Layer_1" viewBox="0 0 64 64" xmlns="http://www.w3.org/2000/svg"><title/><path d="M47,31V9a1,1,0,0,0-1-1H40V3a1,1,0,0,0-1-1H25a1,1,0,0,0-1,1V8H18a1,1,0,0,0-1,1V31a1,1,0,0,0,1,1H46A1,1,0,0,0,47,31ZM26,4H38V8H26Zm18.627,6A14.04,14.04,0,0,1,37,17.063V17a1,1,0,0,0-1-1H28a1,1,0,0,0-1,1v.063A14.04,14.04,0,0,1,19.373,10ZM35,18v2H29V18ZM45,30H19V13.3a16.053,16.053,0,0,0,8,5.873V21a1,1,0,0,0,1,1h8a1,1,0,0,0,1-1V19.173A16.053,16.053,0,0,0,45,13.3Z"/><path d="M42,24a1,1,0,0,0-1,1v2a1,1,0,0,0,2,0V25A1,1,0,0,0,42,24Z"/><path d="M22,24a1,1,0,0,0-1,1v2a1,1,0,0,0,2,0V25A1,1,0,0,0,22,24Z"/><path d="M9,61a1,1,0,0,0,1,1H22a1,1,0,0,0,1-1V53a1,1,0,0,0-1-1V50a11.214,11.214,0,0,0-4.041-8.639l-1.39-2.891a2.535,2.535,0,0,0-4.264-.539,2.666,2.666,0,0,0-.56,2.21l.586,3.047a1,1,0,0,0,.08.245l.037.077a16.177,16.177,0,0,1-4.226-8.621L7.844,32.53A2.955,2.955,0,0,0,4.941,30a2.909,2.909,0,0,0-2.173.986,3.07,3.07,0,0,0-.746,2.4l.551,4.581a25.172,25.172,0,0,0,6.7,14.353A.987.987,0,0,0,9,53Zm12-1H11V54H21ZM4.558,37.732l-.55-4.58a1.069,1.069,0,0,1,.256-.839A.9.9,0,0,1,4.941,32a.965.965,0,0,1,.928.846l.378,2.36a17.92,17.92,0,0,0,8.476,12.653,1,1,0,0,0,1.413-1.292L14.27,42.684l-.561-2.92a.671.671,0,0,1,.138-.559.54.54,0,0,1,.418-.2.564.564,0,0,1,.5.335l1.488,3.1a1,1,0,0,0,.286.355A9.186,9.186,0,0,1,20,50v2H11.776A23.115,23.115,0,0,1,4.558,37.732Z"/><path d="M61.978,33.39a3.07,3.07,0,0,0-.746-2.4A2.909,2.909,0,0,0,59.059,30a2.955,2.955,0,0,0-2.9,2.53l-.378,2.359a16.177,16.177,0,0,1-4.226,8.621l.037-.077a1,1,0,0,0,.08-.245l.586-3.046a2.668,2.668,0,0,0-.56-2.211,2.536,2.536,0,0,0-4.264.538l-1.39,2.892A11.214,11.214,0,0,0,42,50v2a1,1,0,0,0-1,1v8a1,1,0,0,0,1,1H54a1,1,0,0,0,1-1V53a.987.987,0,0,0-.272-.676,25.172,25.172,0,0,0,6.7-14.353ZM53,60H43V54H53Zm6.442-22.268A23.115,23.115,0,0,1,52.224,52H44V50a9.186,9.186,0,0,1,3.459-7.212,1,1,0,0,0,.286-.355l1.488-3.1a.564.564,0,0,1,.5-.335.54.54,0,0,1,.418.2.671.671,0,0,1,.138.559l-.561,2.92-1.866,3.883a1,1,0,0,0,1.413,1.292,17.92,17.92,0,0,0,8.476-12.653l.378-2.36A.965.965,0,0,1,59.059,32a.9.9,0,0,1,.677.313,1.069,1.069,0,0,1,.256.839Z"/></svg>